<svg xmlns="http://www.w3.org/2000/svg" xmlns:xlink="http://www.w3.org/1999/xlink" width="500" zoomAndPan="magnify" viewBox="0 0 375 374.999991" height="500" preserveAspectRatio="xMidYMid meet" version="1.0"><defs><clipPath id="47f4d0aea3"><path d="M 58 151 L 358.820312 151 L 358.820312 337.5 L 58 337.5 Z M 58 151 " clip-rule="nonzero"/></clipPath><clipPath id="2ef9771687"><path d="M 16.070312 37.5 L 259 37.5 L 259 273 L 16.070312 273 Z M 16.070312 37.5 " clip-rule="nonzero"/></clipPath></defs><g clip-path="url(#47f4d0aea3)"><path fill="#127af9" d="M 351.554688 151.699219 L 280.128906 151.699219 C 277.242188 151.699219 274.628906 153.441406 273.527344 156.113281 C 272.414062 158.785156 273.027344 161.855469 275.070312 163.898438 L 305.726562 194.558594 L 208.683594 291.597656 L 156.613281 239.5 C 153.828125 236.714844 149.300781 236.714844 146.511719 239.5 L 60.800781 325.214844 C 58.015625 328 58.015625 332.527344 60.800781 335.3125 C 62.199219 336.714844 64.027344 337.398438 65.855469 337.398438 C 67.683594 337.398438 69.515625 336.699219 70.914062 335.3125 L 151.570312 254.65625 L 203.65625 306.742188 C 206.441406 309.527344 210.96875 309.527344 213.757812 306.742188 L 315.839844 204.65625 L 346.5 235.3125 C 347.871094 236.683594 349.699219 237.398438 351.554688 237.398438 C 352.46875 237.398438 353.398438 237.226562 354.285156 236.855469 C 356.957031 235.757812 358.699219 233.144531 358.699219 230.257812 L 358.699219 158.828125 C 358.699219 154.886719 355.511719 151.699219 351.554688 151.699219 Z M 351.554688 151.699219 " fill-opacity="1" fill-rule="nonzero"/></g><g clip-path="url(#2ef9771687)"><path fill="#127af9" d="M 137.269531 37.414062 C 70.214844 37.414062 15.84375 91.785156 15.84375 158.84375 C 15.84375 210.542969 48.199219 254.570312 93.726562 272.085938 L 136.414062 229.398438 C 140.457031 225.355469 145.84375 223.128906 151.570312 223.128906 C 157.300781 223.128906 162.671875 225.355469 166.726562 229.398438 L 200 262.671875 C 235.140625 241.398438 258.714844 202.914062 258.714844 158.828125 C 258.699219 91.773438 204.34375 37.414062 137.269531 37.414062 Z M 137.269531 137.414062 C 141.214844 137.414062 144.414062 140.613281 144.414062 144.558594 C 144.414062 148.5 141.214844 151.699219 137.269531 151.699219 L 115.84375 151.699219 L 115.84375 165.984375 L 137.269531 165.984375 C 141.214844 165.984375 144.414062 169.1875 144.414062 173.128906 C 144.414062 177.070312 141.214844 180.269531 137.269531 180.269531 L 115.84375 180.269531 C 115.84375 188.015625 125.65625 194.558594 137.285156 194.558594 C 151.070312 194.558594 158.285156 191.957031 158.714844 186.8125 C 159.042969 182.886719 162.640625 179.972656 166.429688 180.300781 C 170.355469 180.628906 173.269531 184.085938 172.941406 188.015625 C 171.785156 201.828125 159.785156 208.84375 137.269531 208.84375 C 117.570312 208.84375 101.542969 196.027344 101.542969 180.269531 L 94.398438 180.269531 C 90.457031 180.269531 87.257812 177.070312 87.257812 173.128906 C 87.257812 169.1875 90.457031 165.984375 94.398438 165.984375 L 101.542969 165.984375 L 101.542969 151.699219 L 94.398438 151.699219 C 90.457031 151.699219 87.257812 148.5 87.257812 144.558594 C 87.257812 140.613281 90.457031 137.414062 94.398438 137.414062 L 101.542969 137.414062 C 101.542969 121.65625 117.570312 108.84375 137.269531 108.84375 C 159.769531 108.84375 171.785156 115.859375 172.941406 129.671875 C 173.269531 133.601562 170.355469 137.058594 166.429688 137.386719 C 162.628906 137.84375 159.042969 134.800781 158.714844 130.871094 C 158.285156 125.730469 151.070312 123.128906 137.285156 123.128906 C 125.65625 123.128906 115.84375 129.671875 115.84375 137.414062 Z M 137.269531 137.414062 " fill-opacity="1" fill-rule="nonzero"/></g></svg>