<svg xmlns="http://www.w3.org/2000/svg" xmlns:xlink="http://www.w3.org/1999/xlink" width="500" zoomAndPan="magnify" viewBox="0 0 375 374.999991" height="500" preserveAspectRatio="xMidYMid meet" version="1.0"><defs><clipPath id="91be7b1902"><path d="M 58 151 L 358.820312 151 L 358.820312 337.5 L 58 337.5 Z M 58 151 " clip-rule="nonzero"/></clipPath><clipPath id="8931bf7c0b"><path d="M 16.070312 37.5 L 259 37.5 L 259 273 L 16.070312 273 Z M 16.070312 37.5 " clip-rule="nonzero"/></clipPath></defs><g clip-path="url(#91be7b1902)"><path fill="#000000" d="M 351.453125 151.699219 L 280.046875 151.699219 C 277.160156 151.699219 274.546875 153.441406 273.449219 156.113281 C 272.335938 158.785156 272.949219 161.855469 274.992188 163.898438 L 305.636719 194.558594 L 208.625 291.597656 L 156.570312 239.5 C 153.785156 236.714844 149.257812 236.714844 146.472656 239.5 L 60.785156 325.214844 C 58 328 58 332.527344 60.785156 335.3125 C 62.1875 336.714844 64.011719 337.398438 65.839844 337.398438 C 67.667969 337.398438 69.496094 336.699219 70.898438 335.3125 L 151.527344 254.65625 L 203.597656 306.742188 C 206.382812 309.527344 210.910156 309.527344 213.695312 306.742188 L 315.75 204.65625 L 346.398438 235.3125 C 347.769531 236.683594 349.597656 237.398438 351.453125 237.398438 C 352.367188 237.398438 353.292969 237.226562 354.179688 236.855469 C 356.851562 235.757812 358.59375 233.144531 358.59375 230.257812 L 358.59375 158.828125 C 358.59375 154.886719 355.40625 151.699219 351.453125 151.699219 Z M 351.453125 151.699219 " fill-opacity="1" fill-rule="nonzero"/></g><g clip-path="url(#8931bf7c0b)"><path fill="#000000" d="M 137.234375 37.414062 C 70.199219 37.414062 15.84375 91.785156 15.84375 158.84375 C 15.84375 210.542969 48.191406 254.570312 93.703125 272.085938 L 136.375 229.398438 C 140.417969 225.355469 145.800781 223.128906 151.527344 223.128906 C 157.253906 223.128906 162.625 225.355469 166.679688 229.398438 L 199.941406 262.671875 C 235.074219 241.398438 258.636719 202.914062 258.636719 158.828125 C 258.625 91.773438 204.285156 37.414062 137.234375 37.414062 Z M 137.234375 137.414062 C 141.175781 137.414062 144.375 140.613281 144.375 144.558594 C 144.375 148.5 141.175781 151.699219 137.234375 151.699219 L 115.8125 151.699219 L 115.8125 165.984375 L 137.234375 165.984375 C 141.175781 165.984375 144.375 169.1875 144.375 173.128906 C 144.375 177.070312 141.175781 180.269531 137.234375 180.269531 L 115.8125 180.269531 C 115.8125 188.015625 125.621094 194.558594 137.246094 194.558594 C 151.027344 194.558594 158.242188 191.957031 158.667969 186.8125 C 159 182.886719 162.597656 179.972656 166.382812 180.300781 C 170.308594 180.628906 173.222656 184.085938 172.894531 188.015625 C 171.738281 201.828125 159.742188 208.84375 137.234375 208.84375 C 117.539062 208.84375 101.515625 196.027344 101.515625 180.269531 L 94.375 180.269531 C 90.433594 180.269531 87.234375 177.070312 87.234375 173.128906 C 87.234375 169.1875 90.433594 165.984375 94.375 165.984375 L 101.515625 165.984375 L 101.515625 151.699219 L 94.375 151.699219 C 90.433594 151.699219 87.234375 148.5 87.234375 144.558594 C 87.234375 140.613281 90.433594 137.414062 94.375 137.414062 L 101.515625 137.414062 C 101.515625 121.65625 117.539062 108.84375 137.234375 108.84375 C 159.726562 108.84375 171.738281 115.859375 172.894531 129.671875 C 173.222656 133.601562 170.308594 137.058594 166.382812 137.386719 C 162.582031 137.84375 159 134.800781 158.667969 130.871094 C 158.242188 125.730469 151.027344 123.128906 137.246094 123.128906 C 125.621094 123.128906 115.8125 129.671875 115.8125 137.414062 Z M 137.234375 137.414062 " fill-opacity="1" fill-rule="nonzero"/></g></svg>